<svg xmlns="http://www.w3.org/2000/svg" width="41" height="42" fill="none" viewBox="0 0 41 42">
  <path fill="#26944b" stroke="#176e3e"
    d="M17.886 39.22v-3.298c-1.255.235-3.577.424-6.589-.707 0 4.524-.784 5.498-1.176 5.42-1.255.314-4.094.565-5.412-.943-.188-2.262.706-5.027 1.177-6.127 0 0-1.592-.5-3.06-2.12C1.36 29.825 1.054 28.498.71 26.26c-.47-3.063 0-7.54 0-7.54s.941-8.483 1.177-9.897C2.12 7.41 2.826.954 5.65.577s3.687.707 4 1.65c.236.706.094 1.272 1.412 1.649s2.118 1.178 2.588 1.65c.706.942.941 2.12.706 3.062-.413 1.656-2.039 1.571-2.823 1.414-1.02-.157-1.852-.246-2.589 0-.705.236-.94.707-1.176 1.65-.235.942-.706 4.241-.706 4.241-.47 3.77.55 5.577.941 5.89.314.393 1.789.425 3.294-.706s4.942-1.1 6.589-.943c1.882.472 4.423 1.508 6.117 3.77s2.119 4.202 4.706 5.42c3.244 1.526 6.353 1.178 10.588-.943-2.794 5.364-11.273 6.343-15.401 6.819l-.128.015c.235.392.753 1.838.941 3.534.188 1.697-2.431 2.121-3.53 2.121-.548 0-1.787-.047-2.352-.236-.565-.188-.941-.707-.941-1.413Z" />
  <path fill="#176e3e" fill-opacity=".5"
    d="M11.324 26.89a1.884 1.884 0 0 0 0-3.77 1.885 1.885 0 0 0-.001 3.771m9.647 1.885a2.59 2.59 0 0 0 2.589-2.592 2.59 2.59 0 0 0-2.588-2.592 2.59 2.59 0 0 0-2.589 2.592 2.59 2.59 0 0 0 2.589 2.592" />
  <path fill="#176e3e" fill-opacity=".6"
    d="M16.5 24.063a1.413 1.413 0 1 0-.002-2.825 1.413 1.413 0 0 0 .002 2.825" />
  <path fill="#000" fill-opacity=".8"
    d="M8.735 6.155a1.177 1.177 0 1 0-.002-2.354 1.177 1.177 0 0 0 .002 2.354" />
  <path fill="#176e3e" fill-opacity=".33"
    d="M16.5 29.718a.942.942 0 1 0-.001-1.883.942.942 0 0 0 0 1.883" />
</svg>